<svg id="svg" version="1.1" viewBox="0 0 300 251.953125" width="300" height="251.953125" xmlns="http://www.w3.org/2000/svg"><svg xmlns="http://www.w3.org/2000/svg"><defs><clipPath id="clip-1"><rect x="0" y="0" transform="scale(0.14648,0.14648)" width="2048" height="1720" fill="none"/></clipPath></defs><g clip-path="url(#clip-1)" fill="none" fill-rule="nonzero" stroke="none" stroke-width="1" stroke-linecap="butt" stroke-linejoin="miter" stroke-miterlimit="10" stroke-dasharray="" stroke-dashoffset="0" font-family="none" font-weight="none" font-size="none" text-anchor="none" style="mix-blend-mode: normal"><path d="M0,0h300v251.95313h-300z" /><path d="M71.08418,125.71318c3.16655,-4.96685 8.76519,-7.83999 14.64653,-7.51655c5.88135,0.32344 11.13135,3.79336 13.73408,9.07734c2.06294,4.18828 2.23198,9.05991 0.46406,13.38105l0.23159,0.89355c0.44883,-0.95933 0.79805,-1.91528 1.11592,-2.92485c1.91528,15.41924 8.68359,28.86797 21.06167,38.52861c11.25674,8.69971 25.52915,12.53027 39.62827,10.63477c14.02441,-1.84424 26.73486,-9.19775 35.32324,-20.4375c1.46924,-1.89697 2.84619,-3.95361 4.00635,-6.0542c0.98438,-1.77832 1.79736,-3.73682 3.03516,-5.35107c2.4082,-3.14062 6.59912,-5.26025 10.48096,-5.76123c4.43115,-0.60205 8.91797,0.62109 12.43066,3.38818c3.5918,2.79492 5.91943,6.90674 6.46729,11.42285c0.2373,1.88232 0.14209,3.79102 -0.28271,5.63965c-1.50293,6.46729 -6.85107,13.94238 -10.93213,19.06348c-14.16943,17.72021 -34.78271,29.10205 -57.32666,31.65381c-22.71357,2.61621 -45.53745,-3.87598 -63.4749,-18.05273c-18.19102,-14.47119 -29.92192,-35.54883 -32.63452,-58.63608c-0.18457,-1.67139 -0.398,-3.36782 -0.37954,-5.0521c0.48223,1.15679 0.9687,2.30156 1.52402,3.42583l0.68101,-0.1106c-3.21343,-5.30815 -3.13608,-11.98008 0.19966,-17.21221z" fill="#207cbb"/><path d="M71.08418,125.71318c3.16655,-4.96685 8.76519,-7.83999 14.64653,-7.51655c5.88135,0.32344 11.13135,3.79336 13.73408,9.07734c2.06294,4.18828 2.23198,9.05991 0.46406,13.38105c-2.33291,5.70234 -7.68032,9.60278 -13.82271,10.08325c-6.14238,0.48047 -12.03105,-2.54297 -15.22163,-7.81289c-3.21343,-5.30815 -3.13608,-11.98008 0.19966,-17.21221z" fill="#207cbb"/><path d="M99.92886,140.65503l0.23159,0.89355c-1.26313,3.55444 -4.71211,6.77417 -8.06792,8.35767c-4.09351,1.90576 -8.7709,2.12988 -13.02759,0.62402c-3.76157,-1.3623 -6.80039,-4.09834 -8.86143,-7.49429l0.68101,-0.1106c3.19058,5.26992 9.07925,8.29336 15.22163,7.81289c6.14238,-0.48047 11.48979,-4.38091 13.82271,-10.08325z" fill="#d0eefb"/><path d="M68.97012,128.24795c0.10195,-4.74272 0.9126,-9.45542 2.01694,-14.05913c3.93633,-16.57075 12.53994,-31.66597 24.79146,-43.49751c13.82241,-13.33301 31.73716,-21.61523 50.84795,-23.50781c2.96777,-0.28726 6.03662,-0.55283 9.01904,-0.4708c4.56152,0.12539 9.01465,1.96875 12.15088,5.32676c3.02783,3.29092 4.62744,7.64751 4.4502,12.11558c-0.15088,4.24014 -2.12402,8.4769 -5.24268,11.35137c-5.6543,5.2125 -10.2041,4.223 -16.99658,4.84731c-3.26367,0.329 -6.49497,0.93647 -9.6564,1.81582c-20.98506,5.95649 -37.79355,26.0458 -38.9584,47.99648c-0.52485,-1.44741 -1.0626,-2.86611 -1.87573,-4.18184l-0.25913,0.24258l0.20713,1.04722c-2.60273,-5.28398 -7.85273,-8.75391 -13.73408,-9.07734c-5.88135,-0.32344 -11.47998,2.54971 -14.64653,7.51655c-0.05815,-0.22207 -0.04761,-0.10957 -0.0126,-0.39521c0.00923,-0.07573 0.02095,-0.15132 0.03135,-0.2269l-0.74136,0.48486c-0.54053,0.85605 -0.96152,1.75767 -1.39146,2.67202z" fill="#37cedb"/><path d="M70.36157,125.57593c2.34961,-3.82324 6.09917,-6.57803 10.45005,-7.67725c4.45884,-1.10479 9.17549,-0.34688 13.06392,2.09912c1.77495,1.10273 4.92319,3.99639 5.64126,5.98638l-0.25913,0.24258l0.20713,1.04722c-2.60273,-5.28398 -7.85273,-8.75391 -13.73408,-9.07734c-5.88135,-0.32344 -11.47998,2.54971 -14.64653,7.51655c-0.05815,-0.22207 -0.04761,-0.10957 -0.0126,-0.39521c0.00923,-0.07573 0.02095,-0.15132 0.03135,-0.2269z" fill="#d0eefb"/><path d="M203.03467,65.30947c9.11279,-0.42905 16.83691,6.63516 17.22217,15.75059c0.38525,9.11543 -6.71777,16.80542 -15.83496,17.14585c-9.0542,0.33809 -16.68018,-6.7043 -17.0625,-15.75732c-0.38232,-9.05303 6.62402,-16.71299 15.67529,-17.13911z" fill="#37cedb"/></g></svg></svg>